<?xml version="1.0" standalone="no"?>
<!DOCTYPE svg PUBLIC "-//W3C//DTD SVG 20010904//EN"
 "http://www.w3.org/TR/2001/REC-SVG-20010904/DTD/svg10.dtd">
<svg version="1.0" xmlns="http://www.w3.org/2000/svg"
 width="1040.000000pt" height="1040.000000pt" viewBox="0 0 1040.000000 1040.000000"
 preserveAspectRatio="xMidYMid meet">
<metadata>
Created by potrace 1.14, written by Peter Selinger 2001-2017
</metadata>
<g transform="translate(0.000000,1040.000000) scale(0.100000,-0.100000)"
fill="#000000" stroke="none">
<path d="M8500 6126 c0 -4 -525 -1961 -536 -1999 -5 -16 5 -17 147 -15 l152 3
268 995 c147 547 268 1001 269 1008 0 9 -36 12 -150 12 -82 0 -150 -2 -150 -4z"/>
<path d="M2080 6045 c0 -5 418 -1473 461 -1617 l20 -68 174 0 c173 0 175 0
180 23 41 159 313 1068 320 1068 5 0 69 -204 142 -453 72 -249 144 -495 159
-545 l27 -93 173 0 173 0 25 83 c28 92 441 1537 451 1580 l7 27 -194 0 -194 0
-138 -582 c-76 -321 -142 -587 -147 -593 -5 -5 -9 -7 -9 -5 0 3 -69 268 -154
590 l-153 585 -166 3 -166 2 -11 -37 c-6 -21 -75 -283 -154 -582 -78 -300
-147 -546 -152 -548 -5 -2 -37 117 -72 265 -35 147 -98 410 -140 585 l-76 317
-193 0 c-106 0 -193 -2 -193 -5z"/>
<path d="M4587 6043 c-4 -3 -7 -384 -7 -845 l0 -838 575 0 575 0 0 145 0 145
-395 0 -395 0 0 205 0 205 360 0 360 0 0 145 0 145 -360 0 -360 0 0 200 0 200
390 0 390 0 0 150 0 150 -563 0 c-310 0 -567 -3 -570 -7z"/>
<path d="M6007 6044 c-4 -4 -7 -385 -7 -846 l0 -839 443 4 c485 4 494 5 620
69 256 129 325 470 138 680 -46 52 -140 104 -209 116 -24 4 -44 11 -43 16 0 5
26 19 58 32 164 67 242 191 230 370 -11 189 -135 325 -348 380 -53 14 -131 18
-469 21 -223 3 -408 1 -413 -3z m753 -308 c80 -42 120 -103 120 -183 0 -60
-19 -101 -68 -145 -61 -55 -118 -68 -299 -68 l-153 0 0 211 0 211 183 -4 c153
-3 188 -6 217 -22z m-10 -647 c128 -27 216 -164 180 -282 -19 -64 -48 -97
-109 -126 -53 -24 -65 -26 -258 -29 l-203 -4 0 226 0 226 170 0 c93 0 192 -5
220 -11z"/>
<path d="M710 5595 l-575 -254 -2 -148 -3 -148 571 -250 c313 -137 574 -252
580 -253 6 -3 8 57 7 163 l-3 166 -388 157 c-213 86 -386 161 -384 166 2 6
178 80 390 166 l387 155 0 167 c0 93 -1 168 -2 168 -2 -1 -262 -115 -578 -255z"/>
<path d="M9042 5523 l3 -167 387 -156 c213 -85 388 -159 388 -165 0 -5 -175
-80 -388 -165 l-387 -156 -3 -168 c-2 -133 0 -167 10 -163 7 3 105 46 218 96
113 50 367 162 565 249 l360 158 0 149 0 148 -562 247 c-309 136 -569 250
-578 254 -14 5 -15 -13 -13 -161z"/>
</g>
</svg>
